<?xml version="1.0" encoding="UTF-8"?>
<svg id="Calque_1" data-name="Calque 1" xmlns="http://www.w3.org/2000/svg" viewBox="0 0 2113.53 2198.39">
  <defs>
    <style>
      .cls-1 {
        fill: #fff;
      }

      .cls-2 {
        fill: #006837;
      }

      .cls-3 {
        fill: #f7931e;
      }

      .cls-4 {
        fill: red;
      }
    </style>
  </defs>
  <g>
    <path class="cls-3" d="M1946.34,1377.93c-32,102.06-89.77,182.11-166.55,249.12-191.56,167.18-480.75,182.21-686.82,36.36-44.28-31.34-40.36-28.6-1.81-62.83,20.34-18.06,27.95-47.58,62.14-28.43,21.16-51.23,37.98-54.75,82.45-15.19,71.67,63.76,152.3,91.1,246.96,64.98,14.96-4.13,28.67-12.76,53.51-24.14-40.05-12.78-69.5-19.54-96.56-31.63-22.5-10.05-44.61-23.89-62.2-40.9-9.98-9.65-17.77-31.99-13.22-43.23,4.27-10.55,25.92-19.01,40.16-19.39,18.73-.5,38.72,5.34,56.4,12.7,172.68,71.85,324.2,31.96,461.57-85.52,4.22-3.61,8.47-7.21,12.88-10.59,.91-.7,2.61-.38,11.1-1.31Z"/>
    <path class="cls-1" d="M1458.8,940.88c-1.89,7.51-6.16,11.89-11.84,14.47,5.49-3.24,9.73-8.36,11.84-14.47Z"/>
    <path class="cls-1" d="M1460.24,750.53v-11.86c0-7.86-3.36-14.92-8.76-19.84,7.13,5.23,10.87,14.65,8.76,31.7Z"/>
    <path class="cls-1" d="M1460.26,765.68h-.02v-.17c0,.07,0,.12,.02,.17Z"/>
    <path class="cls-1" d="M1535.76,833.18c-.07,3.03-.05,6.11-.05,9.16,.05,17.47-.14,34.59-16.83,39.73,9.45-4.17,16-13.61,16-24.6v-44.13c0-11.39-7.06-21.12-17.07-25.05,19.01,4.83,18.4,24.55,17.95,44.89Z"/>
    <path class="cls-1" d="M1390.94,559.61l.02,.02s-.05,.05-.07,.07l.05-.09Z"/>
    <path class="cls-1" d="M1698.18,943.06c-25.95-34.8-49.27-71.52-73.8-107.37,.09-.07,.17-.12,.26-.17l73.54,107.53Z"/>
    <path class="cls-2" d="M1973.07,1199.79c0,35.99-3.36,71.17-9.83,105.28l-195.54,145.11c49.65-70.93,78.79-157.23,78.79-250.39,0-175.7-103.67-327.17-253.18-396.59l-113.76-162.7c278.19,34.52,493.51,271.77,493.51,559.28Z"/>
    <path class="cls-2" d="M972.43,1199.79c0,129.24,56.09,245.37,145.25,325.37l-100.17,79.62c-105.85-102.44-171.65-246.03-171.65-404.99,0-288.86,217.34-526.99,497.4-559.76l-115.7,162.27c-150.55,68.99-255.13,221.03-255.13,397.49Z"/>
    <path class="cls-1" d="M1534.89,813.34v44.13c0,10.99-6.56,20.43-16,24.6-4.78,1.47-10.91,1.94-18.77,1.16-8.55-.85-15.74-.5-21.62,1.14-9.68,2.65-15.74,8.74-18.25,18.49v29.29c0,3.05-.52,5.99-1.44,8.74-2.11,6.11-6.34,11.22-11.84,14.47-9.02,4.1-21.62,3.62-33.81,3.67-2.27,0-4.55,.02-6.79,.02h-17.14c-14.87,0-26.9-12.05-26.9-26.9v-24.5c0-12.86-10.44-23.27-23.3-23.27h-24.48c-14.84,0-26.9-12.03-26.9-26.9v-44.13c0-14.84,12.05-26.9,26.9-26.9h33.45c6.68-1.8,11.51-5.54,14.32-11.13v-36.65c0-14.84,12.03-26.9,26.9-26.9h44.13c6.94,0,13.28,2.65,18.06,6.98,.02,.02,.05,.05,.07,.07,5.4,4.92,8.76,11.98,8.76,19.84v11.86c-.71,5.71-.69,10.7,0,14.99v.17h.02s.12,.02,.17,.02c1.23,10.35,9.02,18.68,19.11,20.74,1.59,.33,3.22,.5,4.88,.5s3.29-.17,4.88-.5h18.7c3.48,0,6.79,.66,9.83,1.85,10.01,3.93,17.07,13.66,17.07,25.05Z"/>
    <path class="cls-4" d="M1699.85,941.94c-10.63-15.99-21.53-31.73-32.35-47.23-76.33-109.35-152.66-218.69-228.99-328.04-4.99-7.15-10.27-14.57-17.96-18.68-26.39-14.12-51.84,45.85-63.61,62.91-23,33.35-46,66.69-69,100.04-46.85,67.93-93.71,135.85-140.56,203.78-40.27,58.38-81.13,117.95-101.93,185.76-19.48,63.49-20.27,132.31-4.29,196.77,13.88,55.96,40.66,109.3,80.84,150.65,41.07,42.27,94.14,70.46,146.26,97.97,34.57,18.24,71.95,37.04,110.74,32.26-9.63,1.19-31.65-42.62-35.7-50.89-9.26-18.88-17.34-38.88-20.44-59.75-2.2-14.82-4.22-32.35-17.33-39.59-5.15-2.84-11.28-3.51-16.44-6.33-13.79-7.53-15.48-26.31-15.45-42.02,.07-51.54-7.98-103.99,1.74-155.12,4.26-22.39,11.56-38.32,32.38-49.5,5.72-3.07,55.36-20.27,58.75-13.86-22.31-42.18-44.42-94.83-18.42-134.85,21.68-33.37,70.41-39.56,103.42-18.13,54.06,35.1,44.83,113.48,.77,152.25,34.31,3.91,74.3,11.64,89.3,42.75,6.52,13.51,6.81,29.07,6.99,44.07,.33,28.22,.65,56.44,.98,84.65,.25,21.64,.45,43.64-5.55,64.43-6,20.79-19.21,40.57-39.03,49.24,11.74,8.78,23.48,17.56,35.22,26.34,50.18-104.48,42.65-234.55-19.26-332.54,17.35-6.92,34.69-13.85,52.04-20.77-16.48-26.53-30.27-58.95-19.49-88.26,7.94-21.59,29.56-37.42,52.54-38.47,22.98-1.05,45.95,12.75,55.82,33.52,14.76,31.06,.16,67.68-16.44,97.79,23.18,2.72,49.33,7.18,62.27,26.62,28.58,42.93,12.43,116.68-.23,162.9-8.32,30.38-20.71,59.66-36.8,86.75-4.74,7.99-50.2,77.85-58.85,73.47,25.03,12.67,56.69,4.02,78.24-13.95,21.55-17.97,35.05-43.58,47.36-68.8,30.52-62.54,57.56-129.15,57.72-198.74,.2-90.53-44.37-172.86-95.24-249.4Zm-447.85,352.12c-2.61,52.27-8.46,112.45,22.67,153.68,7.98,10.54-1.04,33.93-2.3,52.11,0-.03-70.47-38.89-78.36-45.54-17.66-14.87-31.99-33.67-41.7-54.61-5.96-12.85-7.67-54.1-17.51-61.9-48.89-38.7-56.49-161.09-3.25-198.89,3.36-2.39,40.19-24.52,39.34-26.23-21.49-43.11-31.6-114.52,36.55-120.38,27.28-2.35,55.44,15.69,63.15,42.22,3.05,10.49-8.2,89.4-21.81,84.38,19.3,7.1,38.45,14.16,71.97,26.54-50.85,22.25-67.75,68.75-67.88,121.16-.02,8.78-.39,17.99-.86,27.45Zm283.76-460.89c-.57,25.17,4.52,54.03-35.66,50.05-30.9-3.05-44.2,9.61-40.7,40.65,4.17,37.12-21.83,35.02-46.26,35.13-26.16,.09-52.63,1.44-48.61-37.55,2.58-25.12-5.42-41.27-34.47-37.76-38.47,4.62-45.24-17.54-40.63-49.06-5.71-32.27,3.91-51.68,41.17-47.4,25,2.89,37.57-8.83,34.05-33.83-5.61-39.85,18.63-42.19,48.06-41.55,26.71,.57,52.32-.19,47.52,38.66-3.76,30.4,13,39.92,40.15,37.03,36.74-3.88,35.94,20.38,35.37,45.62Z"/>
  </g>
  <g>
    <path class="cls-2" d="M1467.54,1855.99h107.3v341.86c-15.27,0-39.24,0-63.22,0-41.3,0-82.64-1.01-123.9,.3-37.37,1.18-62.94-14.47-79.87-47.2-15.68-30.32-32.47-60.06-50.19-92.65,40.38-16.5,62.12-49.84,64.03-93.76,1.88-43.17-10.89-81.46-52.23-105.18,68.53-14.65,133.02,16.38,150.37,71.44,16.86,53.54-11.23,92.27-104.55,132.66,65.49,1.76,75.19,50.26,99.9,85.22,10.77,15.24,28.4,25.63,42.91,38.23,5.11-18.1,14.18-36.09,14.63-54.3,1.72-69.6,1.12-139.27,.4-208.9-.23-22.01-3.53-43.98-5.58-67.72Z"/>
    <path class="cls-2" d="M1918.24,2197.38c-63.24,0-131.73,3.28-199.58-1.93-21.34-1.64-45.84-22.3-60.17-40.95-21.88-28.49-36.17-62.8-53.66-94.58,75.76-34.26,90.86-150.2,9.38-203.61,78.26-6.66,137.03,21.86,151.87,73.69,15.56,54.35-9.96,90.3-101.95,133.86,87.79,2.53,77.72,98.14,137.75,123.5,19.99-30.22,23.81-258.25,6.13-332.11h110.22v342.14Z"/>
    <path class="cls-2" d="M1086.62,1856.8c-7.57,112.09-8.56,223.82,1.64,338.32h-109.06v-338.32h107.41Z"/>
    <path class="cls-2" d="M889.6,2195.63h-109.22v-339.51h109.99c-12.77,112.87-11.64,224.43-.77,339.51Z"/>
    <path class="cls-2" d="M1235.02,2196.22h-112.68v-340.69h98.91c10.58,113.26-10.21,227.23,13.77,340.69Z"/>
    <path class="cls-2" d="M1951.53,2057.64c75.06-41.77,79.11-156.66,3.56-201.91,55.82-4.98,104.08,3.26,138.7,46.47,24.29,30.31,26.17,66.32,5.6,99.27-32.25,51.67-84.47,57.99-147.86,56.17Z"/>
    <rect class="cls-2" x="812.67" y="1977.55" width="247.71" height="89.87" transform="translate(-515.67 331.73) rotate(-15.81)"/>
  </g>
</svg>